<?xml version="1.0" standalone="no"?>
<!DOCTYPE svg PUBLIC "-//W3C//DTD SVG 20010904//EN"
 "http://www.w3.org/TR/2001/REC-SVG-20010904/DTD/svg10.dtd">
<svg version="1.0" xmlns="http://www.w3.org/2000/svg"
 width="2288.000000pt" height="2288.000000pt" viewBox="0 0 2288.000000 2288.000000"
 preserveAspectRatio="xMidYMid meet">
<metadata>
Created by potrace 1.14, written by Peter Selinger 2001-2017
</metadata>
<g transform="translate(0.000000,2288.000000) scale(0.100000,-0.100000)"
fill="#000000" stroke="none">
<path d="M3687 15944 c-1 -1 -67 -5 -147 -8 -80 -3 -158 -8 -175 -11 -16 -2
-59 -7 -95 -10 -113 -10 -305 -43 -439 -76 -47 -11 -93 -22 -101 -24 -8 -2
-26 -8 -40 -13 -14 -5 -28 -10 -33 -10 -23 -1 -200 -61 -322 -109 -228 -90
-460 -211 -675 -351 -121 -80 -299 -208 -354 -257 -6 -6 -36 -30 -66 -55 -30
-25 -64 -54 -76 -65 -11 -11 -41 -37 -65 -59 -62 -54 -202 -191 -306 -299
-225 -236 -413 -514 -547 -812 -65 -144 -149 -386 -171 -495 -2 -8 -8 -35 -14
-60 -15 -68 -35 -188 -48 -300 -10 -84 -10 -486 1 -569 4 -35 26 -123 48 -195
22 -72 45 -148 50 -168 l10 -38 19 24 c11 13 19 26 19 28 0 8 487 742 590 889
30 43 78 111 105 151 226 325 512 673 745 909 149 151 212 209 345 318 57 47
149 114 225 165 47 31 90 59 95 63 59 44 352 187 472 231 150 55 302 101 393
117 14 3 38 7 53 11 16 3 38 7 50 9 73 9 125 17 147 21 128 22 608 21 715 -1
11 -2 42 -7 70 -10 172 -21 473 -102 639 -172 48 -21 322 -158 351 -176 443
-278 775 -590 1187 -1117 219 -280 434 -593 1025 -1490 234 -355 596 -876 633
-910 3 -3 32 -41 65 -85 358 -475 781 -908 1180 -1207 469 -351 971 -578 1535
-692 41 -8 98 -18 125 -22 28 -3 59 -8 70 -10 11 -2 47 -7 80 -10 33 -3 65 -7
72 -9 20 -7 264 -18 398 -18 151 -1 342 9 469 23 132 16 133 16 406 67 14 2
65 15 115 28 567 151 1037 401 1535 815 113 95 428 400 541 525 152 168 337
395 498 610 62 83 117 157 124 165 7 8 23 32 36 53 12 21 28 43 35 50 17 17
250 357 398 582 423 642 630 951 738 1105 311 442 537 718 809 990 211 210
367 341 556 467 168 111 276 171 430 238 127 55 307 119 395 140 140 33 226
50 315 61 22 3 51 7 65 10 130 22 579 22 710 0 14 -3 43 -7 65 -10 91 -12 126
-18 245 -47 219 -52 399 -117 594 -216 113 -57 288 -162 362 -217 23 -17 55
-40 70 -51 128 -92 264 -214 444 -395 192 -195 196 -199 453 -514 18 -22 39
-50 47 -62 8 -13 47 -65 86 -116 39 -51 98 -131 131 -178 120 -169 253 -361
253 -366 0 -3 18 -29 40 -58 22 -29 40 -56 40 -60 0 -5 14 -25 30 -46 16 -21
30 -43 30 -49 0 -6 4 -11 9 -11 5 0 16 -15 25 -32 9 -18 37 -61 61 -96 25 -35
45 -65 45 -68 0 -4 62 -95 82 -121 6 -8 17 -9 37 -2 l27 10 -2 117 c-3 157
-15 376 -29 532 -10 110 -25 256 -30 280 -2 14 -6 48 -9 75 -3 28 -8 66 -11
85 -2 19 -7 51 -9 70 -13 96 -20 134 -46 245 -98 413 -268 755 -540 1080 -127
152 -457 437 -690 596 -36 24 -66 47 -68 52 -2 4 -8 7 -13 7 -6 0 -36 17 -67
38 -128 86 -363 209 -537 282 -55 23 -109 46 -120 51 -91 42 -502 156 -630
175 -11 1 -42 7 -70 13 -27 5 -77 12 -110 16 -33 4 -71 8 -85 11 -14 2 -56 6
-95 9 -38 3 -97 8 -130 10 -77 7 -400 7 -485 0 -191 -15 -265 -22 -310 -30
-14 -3 -43 -7 -65 -11 -83 -11 -103 -15 -220 -40 -452 -98 -921 -300 -1300
-563 -81 -56 -276 -200 -285 -211 -3 -3 -34 -29 -70 -59 -241 -198 -513 -476
-765 -781 -74 -91 -141 -172 -148 -180 -28 -32 -176 -229 -237 -315 -36 -49
-67 -92 -70 -95 -16 -16 -325 -470 -485 -713 -414 -630 -790 -1186 -815 -1207
-3 -3 -22 -27 -41 -55 -18 -27 -36 -52 -39 -55 -3 -3 -34 -43 -70 -90 -423
-554 -841 -944 -1274 -1189 -106 -60 -301 -150 -401 -185 -27 -10 -57 -20 -65
-23 -25 -10 -31 -11 -189 -53 -155 -40 -305 -65 -461 -78 -160 -13 -540 -5
-626 12 -12 2 -45 7 -75 11 -30 4 -94 16 -144 27 -49 10 -99 21 -111 24 -176
36 -532 182 -709 292 -27 17 -63 39 -80 48 -78 44 -271 188 -415 312 -80 68
-323 312 -416 417 -137 155 -376 457 -464 585 -8 12 -42 58 -75 103 -69 95
-192 274 -343 502 -59 88 -110 162 -114 163 -5 2 -8 8 -8 13 0 4 -72 117 -160
250 -88 133 -160 245 -160 249 0 5 -3 10 -7 12 -5 2 -48 64 -97 138 -86 130
-347 508 -372 540 -7 8 -61 80 -120 160 -499 673 -1002 1168 -1529 1502 -410
261 -895 448 -1350 523 -134 22 -140 23 -215 30 -36 4 -73 9 -84 11 -10 2 -91
6 -180 10 -226 8 -247 9 -249 8z"/>
<path d="M7520 15760 c-6 -4 236 -589 325 -785 7 -16 127 -295 265 -620 138
-324 260 -608 270 -630 10 -22 78 -179 150 -350 73 -170 140 -328 150 -350 10
-22 30 -69 45 -105 33 -81 52 -126 71 -165 8 -16 89 -205 180 -420 91 -214
172 -403 179 -420 7 -16 22 -51 34 -77 21 -52 36 -72 185 -253 196 -239 398
-448 576 -596 88 -73 218 -169 229 -169 5 0 11 -3 13 -8 6 -15 166 -111 283
-169 121 -60 322 -139 331 -130 3 3 -16 65 -41 138 -26 74 -85 244 -132 379
-46 135 -93 272 -104 305 -11 33 -24 69 -29 80 -4 11 -17 47 -28 80 -11 33
-39 114 -62 180 -50 145 -51 149 -51 152 0 2 -8 23 -19 48 -11 25 -17 45 -15
45 2 0 -3 17 -11 37 -9 20 -46 125 -83 232 -52 150 -446 1094 -592 1416 -10
22 -36 85 -59 140 -23 55 -50 118 -60 140 -10 22 -179 416 -375 875 -196 459
-362 849 -369 865 -8 17 -25 54 -38 84 l-25 54 -592 1 c-326 1 -597 -1 -601
-4z"/>
<path d="M13354 15760 c-8 -3 -77 -147 -153 -320 -247 -562 -323 -734 -343
-780 -12 -25 -35 -79 -53 -120 -18 -41 -44 -101 -59 -132 -14 -31 -26 -59 -26
-62 0 -2 -13 -33 -29 -68 -16 -35 -55 -121 -86 -193 -31 -71 -63 -143 -70
-160 -35 -77 -73 -163 -140 -315 -40 -91 -82 -186 -93 -210 -11 -25 -58 -133
-105 -240 -120 -274 -232 -529 -310 -705 -20 -44 -52 -125 -72 -180 -20 -55
-49 -134 -65 -175 -16 -41 -83 -223 -150 -405 -66 -181 -127 -346 -135 -365
-8 -19 -30 -78 -49 -130 -71 -196 -238 -647 -261 -705 l-24 -60 28 -7 c68 -18
203 -26 421 -23 129 1 244 5 255 8 11 2 43 8 70 11 90 13 109 16 216 42 59 14
114 31 122 37 8 7 42 75 75 152 115 269 263 610 287 663 14 29 25 55 25 58 0
5 23 60 55 129 7 17 20 46 29 65 121 283 282 655 298 690 12 25 31 70 43 100
13 30 75 177 140 325 64 149 122 284 129 300 8 17 26 59 41 95 15 36 36 84 46
107 49 110 569 1315 569 1319 0 2 16 39 36 81 19 43 50 113 69 158 18 44 44
105 58 135 14 30 60 136 102 235 42 99 82 194 90 210 73 161 184 429 180 433
-7 7 -1141 9 -1161 2z"/>
<path d="M15560 15762 c-7 -3 -10 -268 -10 -770 l0 -767 25 30 c13 17 54 68
91 115 231 289 557 637 800 852 28 24 50 51 48 59 -1 8 -5 30 -8 49 -19 105
-26 149 -31 185 -3 22 -7 51 -10 65 -7 35 -13 68 -20 120 -4 25 -10 49 -13 55
-6 9 -845 16 -872 7z"/>
<path d="M21826 12870 c4 -30 8 -64 10 -75 26 -127 25 -629 -1 -786 -2 -13 -6
-42 -10 -64 -3 -22 -7 -47 -10 -55 -2 -8 -6 -31 -9 -50 -3 -19 -15 -71 -26
-115 -12 -44 -23 -84 -24 -90 -27 -113 -105 -310 -183 -462 -254 -497 -682
-884 -1210 -1094 -144 -57 -378 -125 -498 -145 -16 -2 -50 -9 -75 -14 -54 -11
-175 -27 -285 -36 -157 -14 -566 -8 -661 10 -10 2 -44 7 -74 10 -44 6 -243 44
-320 61 -8 2 -60 17 -114 34 -1063 323 -1705 1246 -1698 2439 1 73 4 137 7
142 3 6 2 10 -4 10 -5 0 -23 -21 -40 -47 -17 -27 -37 -57 -45 -68 -8 -11 -121
-182 -251 -380 -380 -577 -705 -1059 -726 -1075 -28 -22 -29 -77 -29 -2072 l0
-2023 538 1 c295 1 540 2 543 3 3 0 6 729 6 1618 0 1223 2 1618 11 1621 7 2
20 -10 29 -27 10 -17 21 -31 26 -31 4 0 7 -5 7 -10 0 -6 25 -44 55 -85 214
-289 485 -534 800 -722 83 -50 257 -143 275 -148 3 -1 28 -12 55 -24 325 -147
698 -239 1095 -270 96 -8 470 -6 569 3 75 7 171 17 201 21 14 2 45 7 70 10 96
13 214 33 240 40 8 2 31 7 50 10 19 3 62 13 95 21 33 9 67 18 75 19 44 10 137
38 230 68 1091 357 1919 1183 2254 2248 21 64 38 125 38 135 1 11 -35 73 -79
139 -45 66 -204 307 -355 535 -258 390 -522 779 -538 790 -4 3 -10 12 -13 20
-4 8 -4 -10 -1 -40z"/>
<path d="M1117 12718 c-129 -185 -243 -356 -647 -968 -102 -154 -184 -288
-184 -298 3 -24 65 -211 102 -302 142 -354 333 -679 569 -969 180 -220 476
-493 718 -661 179 -125 452 -278 615 -345 36 -14 79 -32 95 -40 129 -59 394
-140 615 -188 107 -24 138 -30 230 -43 19 -3 46 -7 60 -9 46 -9 165 -20 315
-31 173 -13 559 -7 680 11 17 2 53 6 80 9 63 7 196 25 227 32 13 2 39 7 58 10
19 3 107 23 195 44 735 177 1376 557 1862 1104 l61 69 -199 141 c-109 78 -251
177 -315 221 -63 44 -121 85 -127 90 -7 6 -52 39 -101 73 l-89 61 -21 -27
c-85 -109 -297 -289 -473 -400 -225 -143 -582 -287 -833 -336 -27 -5 -119 -23
-159 -31 -13 -2 -49 -7 -80 -11 -31 -3 -58 -8 -61 -9 -5 -3 -94 -12 -196 -21
-70 -5 -387 -5 -464 0 -78 6 -176 16 -210 21 -121 19 -167 27 -245 44 -355 76
-688 221 -975 425 -90 64 -104 75 -183 146 -371 332 -613 736 -727 1215 -35
148 -36 151 -54 280 -24 163 -34 466 -22 620 10 119 18 194 26 228 4 20 4 37
-1 37 -4 0 -69 -87 -142 -192z"/>
</g>
</svg>
